<svg xmlns="http://www.w3.org/2000/svg" fill="#fff" viewBox="0 0 132.619 53"><title>403</title><path d="M30.1,38.482H.433L0,37.546,30.315.9H31.61V37.042h8.281v1.44H31.61V51.659H30.1Zm0-1.44V3.343L2.232,37.042Z"/><path d="M98.2,43.522l1.3-1.008a20.764,20.764,0,0,0,16.85,8.569c7.993,0,14.688-5.185,14.688-12.385v-.144c0-8.929-7.632-12.529-18.721-12.529h-1.729l-.5-1.008L129.667,2.695h-28.73V1.255h30.818V2.407L112.313,24.585c12.457.072,20.306,4.392,20.306,13.9v.144c0,8.137-7.489,13.9-16.346,13.9A22.278,22.278,0,0,1,98.2,43.522Z"/><path d="M69.8,1.5a25,25,0,1,1-25,25,25.028,25.028,0,0,1,25-25m0-1.5A26.5,26.5,0,1,0,96.3,26.5,26.5,26.5,0,0,0,69.8,0Z"/><path d="M54.353,22.782h-1.1V18.493h1.222a4.9,4.9,0,0,1,1.008.07,1.186,1.186,0,0,1,.492.24,1.267,1.267,0,0,1,.362.491,1.665,1.665,0,0,1,.124.655,1.725,1.725,0,0,1-.123.675,1.176,1.176,0,0,1-.363.479,1.141,1.141,0,0,1-.428.2,3.59,3.59,0,0,1-.788.062h-.41Zm0-2.358h.223a1.089,1.089,0,0,0,.589-.116.445.445,0,0,0,.167-.394.434.434,0,0,0-.164-.384,1.069,1.069,0,0,0-.58-.114h-.234Z"/><path d="M57.06,22.782V18.493h2.628v.94H58.2v.744h1.4v.92H58.2v.724h1.488v.961Z"/><path d="M60.461,22.782V18.493h1.222a5.1,5.1,0,0,1,1,.066,1.275,1.275,0,0,1,.487.221,1.158,1.158,0,0,1,.356.448,1.428,1.428,0,0,1,.124.6,1.274,1.274,0,0,1-.244.81,1.194,1.194,0,0,1-.714.415l1.169,1.729H62.541L61.557,21.1v1.679Zm1.1-2.262h.217a.939.939,0,0,0,.553-.129.469.469,0,0,0,.174-.4.568.568,0,0,0-.162-.458.858.858,0,0,0-.547-.136h-.234Z"/><path d="M69.227,22.782H68.134l-.252-1.854c-.018-.131-.033-.276-.048-.437s-.028-.335-.04-.524a5.262,5.262,0,0,1-.161.68q-.026.085-.038.126l-.583,2.01h-.779l-.583-2.01-.035-.126a4.716,4.716,0,0,1-.161-.677q-.018.243-.041.482t-.056.476L65.1,22.782H64.018l.662-4.289h1.157l.647,2.212q.006.023.023.076a2.849,2.849,0,0,1,.114.507,2.069,2.069,0,0,1,.044-.253q.032-.139.088-.335l.653-2.206h1.16Z"/><path d="M69.771,21.786v-.955h1.992v.955Z"/><path d="M53.286,29.307V25.018h1.181v4.289Z"/><path d="M55.6,27.921a2.123,2.123,0,0,0,.515.442,1,1,0,0,0,.5.146.582.582,0,0,0,.386-.126.4.4,0,0,0,.15-.319.417.417,0,0,0-.13-.33,1.654,1.654,0,0,0-.591-.239,1.925,1.925,0,0,1-.891-.442,1.036,1.036,0,0,1-.261-.747,1.317,1.317,0,0,1,.412-1,1.492,1.492,0,0,1,1.067-.388,2.335,2.335,0,0,1,.673.1,2.172,2.172,0,0,1,.6.289l-.366.841a1.533,1.533,0,0,0-.408-.256,1.083,1.083,0,0,0-.415-.086.548.548,0,0,0-.343.1.313.313,0,0,0-.132.259.319.319,0,0,0,.116.258,1.249,1.249,0,0,0,.446.185l.053.015a2.189,2.189,0,0,1,.94.425,1.048,1.048,0,0,1,.231.379,1.449,1.449,0,0,1,.079.491,1.423,1.423,0,0,1-.448,1.1,1.691,1.691,0,0,1-1.2.415,2.11,2.11,0,0,1-.815-.152,2.311,2.311,0,0,1-.708-.478Z"/><path d="M59.087,27.921a2.123,2.123,0,0,0,.515.442,1,1,0,0,0,.5.146.582.582,0,0,0,.386-.126.4.4,0,0,0,.15-.319.417.417,0,0,0-.13-.33,1.654,1.654,0,0,0-.591-.239,1.925,1.925,0,0,1-.891-.442,1.036,1.036,0,0,1-.261-.747,1.317,1.317,0,0,1,.412-1,1.492,1.492,0,0,1,1.067-.388,2.335,2.335,0,0,1,.673.1,2.172,2.172,0,0,1,.6.289l-.366.841a1.533,1.533,0,0,0-.408-.256,1.083,1.083,0,0,0-.415-.086.548.548,0,0,0-.343.1.313.313,0,0,0-.132.259.319.319,0,0,0,.116.258,1.249,1.249,0,0,0,.446.185l.053.015a2.189,2.189,0,0,1,.94.425,1.048,1.048,0,0,1,.231.379,1.449,1.449,0,0,1,.079.491,1.423,1.423,0,0,1-.448,1.1,1.691,1.691,0,0,1-1.2.415,2.11,2.11,0,0,1-.815-.152,2.311,2.311,0,0,1-.708-.478Z"/><path d="M62.412,29.307V25.018h1.181v4.289Z"/><path d="M68.939,27.171a2.18,2.18,0,0,1-.665,1.591,2.339,2.339,0,0,1-.75.488,2.334,2.334,0,0,1-1.756,0,2.246,2.246,0,0,1-.74-.488,2.173,2.173,0,0,1-.5-.727,2.263,2.263,0,0,1,0-1.73,2.177,2.177,0,0,1,.5-.725,2.246,2.246,0,0,1,.74-.488,2.347,2.347,0,0,1,1.761,0,2.266,2.266,0,0,1,.745.488,2.19,2.19,0,0,1,.665,1.591Zm-2.291,1.26a1.031,1.031,0,0,0,.8-.357,1.429,1.429,0,0,0,0-1.8,1.074,1.074,0,0,0-1.6,0,1.449,1.449,0,0,0,0,1.806A1.03,1.03,0,0,0,66.648,28.431Z"/><path d="M69.672,29.307V25.018H70.8l1.62,2.206a3.018,3.018,0,0,1,.154.271q.107.2.235.485c-.023-.178-.04-.336-.051-.475s-.017-.262-.017-.369V25.018h1.122v4.289H72.742l-1.62-2.215a2.5,2.5,0,0,1-.156-.271q-.107-.2-.233-.479c.023.18.041.339.052.478s.016.262.016.369v2.118Z"/><path d="M53.257,35.833V31.543h.894a7.3,7.3,0,0,1,1.414.094,2.033,2.033,0,0,1,.728.313,1.834,1.834,0,0,1,.618.728,2.534,2.534,0,0,1,0,2.024,1.834,1.834,0,0,1-.618.728,2.022,2.022,0,0,1-.709.309,5.991,5.991,0,0,1-1.236.092h-1.09Zm1.157-.961h.2a1.483,1.483,0,0,0,1-.283,1.147,1.147,0,0,0,.316-.9,1.162,1.162,0,0,0-.316-.9,1.467,1.467,0,0,0-1-.287h-.2Z"/><path d="M57.854,35.833V31.543h2.628v.94H58.993v.744h1.4v.92h-1.4v.724h1.488v.961Z"/><path d="M61.255,35.833V31.543h1.128L64,33.75a3.018,3.018,0,0,1,.154.271q.107.2.235.485c-.023-.178-.04-.336-.051-.475s-.017-.262-.017-.369V31.543h1.122v4.289H64.325l-1.62-2.215a2.5,2.5,0,0,1-.156-.271q-.107-.2-.233-.479c.023.18.041.339.052.478s.016.262.016.369v2.118Z"/><path d="M66.4,35.833V31.543h1.181v4.289Z"/><path d="M68.521,35.833V31.543h2.628v.94H69.66v.744h1.4v.92h-1.4v.724h1.488v.961Z"/><path d="M71.922,35.833V31.543h.894a7.3,7.3,0,0,1,1.414.094,2.033,2.033,0,0,1,.728.313,1.834,1.834,0,0,1,.618.728,2.534,2.534,0,0,1,0,2.024,1.834,1.834,0,0,1-.618.728,2.022,2.022,0,0,1-.709.309,5.991,5.991,0,0,1-1.236.092h-1.09Zm1.157-.961h.2a1.483,1.483,0,0,0,1-.283,1.147,1.147,0,0,0,.316-.9,1.162,1.162,0,0,0-.316-.9,1.467,1.467,0,0,0-1-.287h-.2Z"/></svg>