<svg xmlns="http://www.w3.org/2000/svg" fill="#fff" viewBox="0 0 139.892 53"><title>404</title><path d="M30.1,38.482H.433L0,37.546,30.315.9H31.61V37.042h8.281v1.44H31.61V51.659H30.1Zm0-1.44V3.343L2.232,37.042Z"/><path d="M130.1,38.482H100.433L100,37.546,130.315.9h1.295V37.042h8.281v1.44H131.61V51.659H130.1Zm0-1.44V3.343l-27.866,33.7Z"/><path d="M69.8,1.5a25,25,0,1,1-25,25,25.028,25.028,0,0,1,25-25m0-1.5A26.5,26.5,0,1,0,96.3,26.5,26.5,26.5,0,0,0,69.8,0Z"/><path d="M54.353,22.782h-1.1V18.493h1.222a4.9,4.9,0,0,1,1.008.07,1.186,1.186,0,0,1,.492.24,1.267,1.267,0,0,1,.362.491,1.665,1.665,0,0,1,.124.655,1.725,1.725,0,0,1-.123.675,1.176,1.176,0,0,1-.363.479,1.141,1.141,0,0,1-.428.2,3.59,3.59,0,0,1-.788.062h-.41Zm0-2.358h.223a1.089,1.089,0,0,0,.589-.116.445.445,0,0,0,.167-.394.434.434,0,0,0-.164-.384,1.069,1.069,0,0,0-.58-.114h-.234Z"/><path d="M56.257,22.782l1.479-4.289H59.2l1.482,4.289H59.521l-.217-.768H57.643l-.223.768Zm1.638-1.6h1.163l-.437-1.415q-.021-.064-.056-.208l-.091-.369c-.025.105-.05.206-.074.3s-.05.188-.075.275Z"/><path d="M63.027,21.2v-.9h2.3c0,.029,0,.062,0,.1s0,.087,0,.155a2.385,2.385,0,0,1-.584,1.718,2.17,2.17,0,0,1-1.646.611,2.557,2.557,0,0,1-.927-.157,2.058,2.058,0,0,1-.726-.479,2.166,2.166,0,0,1-.473-.728,2.346,2.346,0,0,1-.169-.88,2.32,2.32,0,0,1,.164-.883,2.169,2.169,0,0,1,1.229-1.2,2.478,2.478,0,0,1,.9-.161,2.408,2.408,0,0,1,1.115.249,2.177,2.177,0,0,1,.815.741l-1.014.486a1.23,1.23,0,0,0-.408-.371,1.061,1.061,0,0,0-.509-.122,1.034,1.034,0,0,0-.826.35,1.417,1.417,0,0,0-.3.957,1.432,1.432,0,0,0,.3.964A1.032,1.032,0,0,0,63.1,22a1.223,1.223,0,0,0,.743-.218.835.835,0,0,0,.347-.582Z"/><path d="M66.045,22.782V18.493h2.628v.94H67.185v.744h1.4v.92h-1.4v.724h1.488v.961Z"/><path d="M53.257,29.307V25.018h1.128L56,27.224a3.018,3.018,0,0,1,.154.271q.107.2.235.485c-.023-.178-.04-.336-.051-.475s-.017-.262-.017-.369V25.018h1.122v4.289H56.327l-1.62-2.215a2.5,2.5,0,0,1-.156-.271q-.107-.2-.233-.479c.023.18.041.339.052.478s.016.262.016.369v2.118Z"/><path d="M62.772,27.171a2.18,2.18,0,0,1-.665,1.591,2.339,2.339,0,0,1-.75.488,2.334,2.334,0,0,1-1.756,0,2.246,2.246,0,0,1-.74-.488,2.173,2.173,0,0,1-.5-.727,2.263,2.263,0,0,1,0-1.73,2.177,2.177,0,0,1,.5-.725,2.246,2.246,0,0,1,.74-.488,2.347,2.347,0,0,1,1.761,0,2.266,2.266,0,0,1,.745.488,2.19,2.19,0,0,1,.665,1.591Zm-2.291,1.26a1.031,1.031,0,0,0,.8-.357,1.429,1.429,0,0,0,0-1.8,1.074,1.074,0,0,0-1.6,0,1.449,1.449,0,0,0,0,1.806A1.03,1.03,0,0,0,60.481,28.431Z"/><path d="M64.018,29.307V26.032h-.961V25.018h3.091v1.014h-.961v3.275Z"/><path d="M53.257,35.833V31.543h2.628v.94H54.4v.744h1.4v.92H54.4v1.685Z"/><path d="M60.924,33.7a2.18,2.18,0,0,1-.665,1.591,2.339,2.339,0,0,1-.75.488,2.334,2.334,0,0,1-1.756,0,2.246,2.246,0,0,1-.74-.488,2.173,2.173,0,0,1-.5-.727,2.263,2.263,0,0,1,0-1.73,2.177,2.177,0,0,1,.5-.725,2.246,2.246,0,0,1,.74-.488,2.347,2.347,0,0,1,1.761,0,2.266,2.266,0,0,1,.745.488,2.19,2.19,0,0,1,.665,1.591Zm-2.291,1.26a1.031,1.031,0,0,0,.8-.357,1.429,1.429,0,0,0,0-1.8,1.074,1.074,0,0,0-1.6,0,1.449,1.449,0,0,0,0,1.806A1.03,1.03,0,0,0,58.633,34.957Z"/><path d="M61.63,31.543H62.8v2.086a6.448,6.448,0,0,0,.023.661,1.275,1.275,0,0,0,.079.335.483.483,0,0,0,.234.25,1,1,0,0,0,.813,0,.5.5,0,0,0,.235-.25,1.275,1.275,0,0,0,.079-.335,6.448,6.448,0,0,0,.023-.661V31.543h1.163v2.268a4.628,4.628,0,0,1-.085,1.042,1.4,1.4,0,0,1-.287.573,1.324,1.324,0,0,1-.6.391,3.4,3.4,0,0,1-1.864,0A1.346,1.346,0,0,1,62,35.425a1.431,1.431,0,0,1-.285-.573,4.545,4.545,0,0,1-.087-1.042V31.543Z"/><path d="M66.335,35.833V31.543h1.128l1.62,2.206a3.018,3.018,0,0,1,.154.271q.107.2.235.485c-.023-.178-.04-.336-.051-.475s-.017-.262-.017-.369V31.543h1.122v4.289H69.405l-1.62-2.215a2.5,2.5,0,0,1-.156-.271q-.107-.2-.233-.479c.023.18.041.339.052.478s.016.262.016.369v2.118Z"/><path d="M71.447,35.833V31.543h.894a7.3,7.3,0,0,1,1.414.094,2.033,2.033,0,0,1,.728.313,1.834,1.834,0,0,1,.618.728,2.534,2.534,0,0,1,0,2.024,1.834,1.834,0,0,1-.618.728,2.022,2.022,0,0,1-.709.309,5.991,5.991,0,0,1-1.236.092h-1.09Zm1.157-.961h.2a1.483,1.483,0,0,0,1-.283,1.147,1.147,0,0,0,.316-.9,1.162,1.162,0,0,0-.316-.9,1.467,1.467,0,0,0-1-.287h-.2Z"/></svg>