<svg xmlns="http://www.w3.org/2000/svg" fill="#fff" viewBox="0 0 150.771 53"><title>500</title><path d="M0,44.458l1.225-1.08a21.637,21.637,0,0,0,16.057,7.7c9.217,0,15.7-5.9,15.7-14.257v-.144c0-8.064-6.768-13.465-15.408-13.465A27.706,27.706,0,0,0,4.177,26.6l-.937-.5L4.753,1.255H31.611v1.44H6.193L4.9,24.585a28.972,28.972,0,0,1,12.817-2.809c9.577,0,16.85,5.977,16.85,14.833v.144c0,9.217-7.129,15.77-17.354,15.77A23.463,23.463,0,0,1,0,44.458Z"/><path d="M66.271,1.5a25,25,0,1,1-25,25,25.028,25.028,0,0,1,25-25m0-1.5a26.5,26.5,0,1,0,26.5,26.5A26.5,26.5,0,0,0,66.271,0Z"/><path d="M49.758,22.782V18.493h1.181v4.289Z"/><path d="M51.882,22.782V18.493H53.01L54.63,20.7a3.018,3.018,0,0,1,.154.271q.107.2.235.485c-.023-.178-.04-.336-.051-.475s-.017-.262-.017-.369V18.493h1.122v4.289H54.952l-1.62-2.215a2.5,2.5,0,0,1-.156-.271q-.107-.2-.233-.479c.023.18.041.339.052.478s.016.262.016.369v2.118Z"/><path d="M57.612,22.782V19.507h-.961V18.493h3.091v1.014h-.961v3.275Z"/><path d="M60.313,22.782V18.493h2.628v.94H61.453v.744h1.4v.92h-1.4v.724h1.488v.961Z"/><path d="M63.715,22.782V18.493h1.222a5.1,5.1,0,0,1,1,.066,1.275,1.275,0,0,1,.487.221,1.158,1.158,0,0,1,.356.448,1.428,1.428,0,0,1,.124.6,1.274,1.274,0,0,1-.244.81,1.194,1.194,0,0,1-.714.415l1.169,1.729H65.795L64.811,21.1v1.679Zm1.1-2.262h.217a.939.939,0,0,0,.553-.129.469.469,0,0,0,.174-.4.568.568,0,0,0-.162-.458.858.858,0,0,0-.547-.136h-.234Z"/><path d="M67.562,22.782V18.493h1.128L70.31,20.7a3.018,3.018,0,0,1,.154.271q.107.2.235.485c-.023-.178-.04-.336-.051-.475s-.017-.262-.017-.369V18.493h1.122v4.289H70.632l-1.62-2.215a2.5,2.5,0,0,1-.156-.271q-.107-.2-.233-.479c.023.18.041.339.052.478s.016.262.016.369v2.118Z"/><path d="M72.17,22.782l1.479-4.289h1.465L76.6,22.782H75.434l-.217-.768H73.556l-.223.768Zm1.638-1.6h1.163l-.437-1.415q-.021-.064-.056-.208l-.091-.369c-.025.105-.05.206-.074.3s-.05.188-.075.275Z"/><path d="M77.007,22.782V18.493h1.169V21.78h1.453v1Z"/><path d="M49.919,27.921a2.123,2.123,0,0,0,.515.442,1,1,0,0,0,.5.146.582.582,0,0,0,.386-.126.4.4,0,0,0,.15-.319.417.417,0,0,0-.13-.33,1.654,1.654,0,0,0-.591-.239,1.925,1.925,0,0,1-.891-.442,1.036,1.036,0,0,1-.261-.747,1.317,1.317,0,0,1,.412-1,1.492,1.492,0,0,1,1.067-.388,2.335,2.335,0,0,1,.673.1,2.172,2.172,0,0,1,.6.289l-.366.841a1.533,1.533,0,0,0-.408-.256,1.083,1.083,0,0,0-.415-.086.548.548,0,0,0-.343.1.313.313,0,0,0-.132.259.319.319,0,0,0,.116.258,1.249,1.249,0,0,0,.446.185l.053.015a2.189,2.189,0,0,1,.94.425,1.048,1.048,0,0,1,.231.379,1.449,1.449,0,0,1,.079.491,1.423,1.423,0,0,1-.448,1.1,1.691,1.691,0,0,1-1.2.415,2.11,2.11,0,0,1-.815-.152,2.311,2.311,0,0,1-.708-.478Z"/><path d="M53.215,29.307V25.018h2.628v.94H54.354V26.7h1.4v.92h-1.4v.724h1.488v.961Z"/><path d="M56.616,29.307V25.018h1.222a5.1,5.1,0,0,1,1,.066,1.275,1.275,0,0,1,.487.221,1.158,1.158,0,0,1,.356.448,1.428,1.428,0,0,1,.124.6,1.274,1.274,0,0,1-.244.81,1.194,1.194,0,0,1-.714.415l1.169,1.729H58.7l-.984-1.679v1.679Zm1.1-2.262h.217a.939.939,0,0,0,.553-.129.469.469,0,0,0,.174-.4.568.568,0,0,0-.162-.458.858.858,0,0,0-.547-.136h-.234Z"/><path d="M61.69,29.307l-1.8-4.289h1.242l.858,2.4c.008.025.024.086.049.183s.056.227.095.391q.047-.2.088-.354t.062-.22l.853-2.4H64.38l-1.8,4.289Z"/><path d="M64.729,29.307V25.018h2.628v.94H65.868V26.7h1.4v.92h-1.4v.724h1.488v.961Z"/><path d="M68.13,29.307V25.018h1.222a5.1,5.1,0,0,1,1,.066,1.275,1.275,0,0,1,.487.221,1.158,1.158,0,0,1,.356.448,1.428,1.428,0,0,1,.124.6,1.274,1.274,0,0,1-.244.81,1.194,1.194,0,0,1-.714.415l1.169,1.729H70.21l-.984-1.679v1.679Zm1.1-2.262h.217A.939.939,0,0,0,70,26.917a.469.469,0,0,0,.174-.4.568.568,0,0,0-.162-.458.858.858,0,0,0-.547-.136h-.234Z"/><path d="M49.729,35.833V31.543h2.628v.94H50.868v.744h1.4v.92h-1.4v.724h1.488v.961Z"/><path d="M53.13,35.833V31.543h1.222a5.1,5.1,0,0,1,1,.066,1.275,1.275,0,0,1,.487.221,1.158,1.158,0,0,1,.356.448,1.428,1.428,0,0,1,.124.6,1.274,1.274,0,0,1-.244.81,1.194,1.194,0,0,1-.714.415l1.169,1.729H55.21l-.984-1.679v1.679Zm1.1-2.262h.217A.939.939,0,0,0,55,33.442a.469.469,0,0,0,.174-.4.568.568,0,0,0-.162-.458.858.858,0,0,0-.547-.136h-.234Z"/><path d="M56.977,35.833V31.543H58.2a5.1,5.1,0,0,1,1,.066,1.275,1.275,0,0,1,.487.221,1.158,1.158,0,0,1,.356.448,1.428,1.428,0,0,1,.124.6,1.274,1.274,0,0,1-.244.81,1.194,1.194,0,0,1-.714.415l1.169,1.729H59.057l-.984-1.679v1.679Zm1.1-2.262h.217a.939.939,0,0,0,.553-.129.469.469,0,0,0,.174-.4.568.568,0,0,0-.162-.458.858.858,0,0,0-.547-.136h-.234Z"/><path d="M65.227,33.7a2.18,2.18,0,0,1-.665,1.591,2.339,2.339,0,0,1-.75.488,2.334,2.334,0,0,1-1.756,0,2.246,2.246,0,0,1-.74-.488,2.173,2.173,0,0,1-.5-.727,2.263,2.263,0,0,1,0-1.73,2.177,2.177,0,0,1,.5-.725,2.246,2.246,0,0,1,.74-.488,2.347,2.347,0,0,1,1.761,0,2.266,2.266,0,0,1,.745.488,2.19,2.19,0,0,1,.665,1.591Zm-2.291,1.26a1.031,1.031,0,0,0,.8-.357,1.429,1.429,0,0,0,0-1.8,1.074,1.074,0,0,0-1.6,0,1.449,1.449,0,0,0,0,1.806A1.03,1.03,0,0,0,62.936,34.957Z"/><path d="M65.959,35.833V31.543h1.222a5.1,5.1,0,0,1,1,.066,1.275,1.275,0,0,1,.487.221,1.158,1.158,0,0,1,.356.448,1.428,1.428,0,0,1,.124.6,1.274,1.274,0,0,1-.244.81,1.194,1.194,0,0,1-.714.415l1.169,1.729H68.039l-.984-1.679v1.679Zm1.1-2.262h.217a.939.939,0,0,0,.553-.129.469.469,0,0,0,.174-.4.568.568,0,0,0-.162-.458.858.858,0,0,0-.547-.136h-.234Z"/><path d="M124.271,1.5a25,25,0,1,1-25,25,25.028,25.028,0,0,1,25-25m0-1.5a26.5,26.5,0,1,0,26.5,26.5A26.5,26.5,0,0,0,124.271,0Z"/></svg>