<svg xmlns="http://www.w3.org/2000/svg" fill="#fff" viewBox="0 0 130.963 53"><title>502</title><path d="M0,44.458l1.225-1.08a21.636,21.636,0,0,0,16.057,7.705c9.217,0,15.7-5.9,15.7-14.258v-.144c0-8.064-6.768-13.465-15.408-13.465A27.711,27.711,0,0,0,4.177,26.6l-.937-.5L4.753,1.255H31.611V2.694H6.193L4.9,24.585a28.972,28.972,0,0,1,12.817-2.809c9.577,0,16.85,5.977,16.85,14.833v.145c0,9.217-7.129,15.77-17.354,15.77A23.463,23.463,0,0,1,0,44.458Z"/><path d="M96.832,50.724l22.826-22.106c7.776-7.488,9-11.593,9-15.265,0-6.121-5.473-11.377-13.32-11.377-7.346,0-12.529,4.32-15.7,10.152l-1.369-.792c3.385-6.265,9-10.8,17.139-10.8,8.855,0,14.832,5.761,14.832,12.673v.145c0,4.32-1.295,8.353-9.648,16.417L99.424,50.22h31.539v1.439H96.832Z"/><path d="M66.271,1.5a25,25,0,1,1-25,25,25.028,25.028,0,0,1,25-25m0-1.5a26.5,26.5,0,1,0,26.5,26.5A26.5,26.5,0,0,0,66.271,0Z"/><path d="M49.729,25.782V21.493H50.9a7.368,7.368,0,0,1,1.016.047,1.536,1.536,0,0,1,.5.161.909.909,0,0,1,.362.354,1.02,1.02,0,0,1,.124.511.856.856,0,0,1-.186.581,1.167,1.167,0,0,1-.594.327,1.023,1.023,0,0,1,.715.321,1.093,1.093,0,0,1,.258.763,1.221,1.221,0,0,1-.145.6,1,1,0,0,1-.415.4,1.7,1.7,0,0,1-.542.167,7.776,7.776,0,0,1-1.055.05Zm1.084-2.575h.234a1.269,1.269,0,0,0,.595-.1.349.349,0,0,0,.161-.329.374.374,0,0,0-.15-.341,1.181,1.181,0,0,0-.588-.1h-.252Zm0,1.7h.41a1.225,1.225,0,0,0,.589-.1.375.375,0,0,0,.173-.348.423.423,0,0,0-.158-.377,1.138,1.138,0,0,0-.586-.106h-.428Z"/><path d="M53.294,25.782l1.479-4.289h1.465l1.482,4.289H56.558l-.217-.768H54.68l-.223.768Zm1.638-1.6h1.163l-.437-1.415q-.021-.064-.056-.208l-.091-.369c-.025.105-.05.206-.074.3s-.05.188-.075.275Z"/><path d="M58.131,25.782V21.493h.894a7.3,7.3,0,0,1,1.414.094,2.033,2.033,0,0,1,.728.313,1.829,1.829,0,0,1,.618.729,2.532,2.532,0,0,1,0,2.023,1.829,1.829,0,0,1-.618.729,2,2,0,0,1-.709.309,5.915,5.915,0,0,1-1.236.093h-1.09Zm1.157-.961h.2a1.488,1.488,0,0,0,1-.282,1.15,1.15,0,0,0,.316-.9,1.162,1.162,0,0,0-.316-.9,1.467,1.467,0,0,0-1-.287h-.2Z"/><path d="M51.768,30.729v-.9h2.3c0,.029,0,.063,0,.1s0,.086,0,.154a2.386,2.386,0,0,1-.584,1.719,2.17,2.17,0,0,1-1.646.611,2.557,2.557,0,0,1-.927-.157,2.059,2.059,0,0,1-.726-.479,2.164,2.164,0,0,1-.473-.728,2.418,2.418,0,0,1,0-1.764,2.168,2.168,0,0,1,1.229-1.2,2.477,2.477,0,0,1,.9-.16,2.408,2.408,0,0,1,1.115.248,2.18,2.18,0,0,1,.815.742l-1.014.486a1.232,1.232,0,0,0-.408-.371,1.061,1.061,0,0,0-.509-.121,1.033,1.033,0,0,0-.826.35,1.678,1.678,0,0,0,0,1.92,1.032,1.032,0,0,0,.826.352,1.223,1.223,0,0,0,.743-.218.834.834,0,0,0,.347-.581Z"/><path d="M54.281,32.307l1.479-4.289h1.465l1.482,4.289H57.545l-.217-.768H55.667l-.223.768Zm1.638-1.6h1.163l-.437-1.416c-.014-.043-.032-.111-.056-.207l-.091-.369c-.025.105-.05.205-.074.3s-.05.188-.075.275Z"/><path d="M59.493,32.307V29.031h-.961V28.018h3.091v1.014h-.961v3.275Z"/><path d="M62.194,32.307V28.018h2.628v.941H63.334V29.7h1.4v.92h-1.4v.723h1.488v.961Z"/><path d="M68.517,28.018l.539,2.039q.038.138.07.287c.021.1.044.215.067.344.029-.152.055-.278.075-.377s.04-.184.06-.254l.5-2.039h1.181L69.8,32.307H68.716l-.53-1.83c-.02-.064-.052-.191-.1-.379-.02-.084-.035-.148-.047-.2L68,30.074c-.045.189-.079.324-.1.4l-.521,1.83H66.29l-1.21-4.289h1.181l.492,2.051c.023.105.047.211.069.316s.043.215.063.326c.018-.082.037-.168.058-.258s.051-.219.092-.385l.539-2.051Z"/><path d="M70.808,32.307l1.479-4.289h1.465l1.482,4.289H74.071l-.217-.768H72.193l-.223.768Zm1.638-1.6h1.163l-.437-1.416c-.014-.043-.032-.111-.056-.207l-.091-.369c-.025.105-.05.205-.074.3s-.05.188-.075.275Z"/><path d="M76.192,32.307V30.35l-1.5-2.332h1.342l.577,1.105a.3.3,0,0,1,.018.031,1.349,1.349,0,0,1,.126.332,1.163,1.163,0,0,1,.126-.32l.023-.043.571-1.105H78.82l-1.5,2.332v1.957Z"/></svg>