<svg xmlns="http://www.w3.org/2000/svg" fill="#fff" viewBox="0 0 129.091 53"><title>503</title><path d="M0,44.458l1.225-1.08a21.636,21.636,0,0,0,16.057,7.705c9.217,0,15.7-5.9,15.7-14.258v-.144c0-8.064-6.768-13.465-15.408-13.465A27.711,27.711,0,0,0,4.177,26.6l-.937-.5L4.753,1.255H31.611V2.694H6.193L4.9,24.585a28.972,28.972,0,0,1,12.817-2.809c9.577,0,16.85,5.977,16.85,14.833v.145c0,9.217-7.129,15.77-17.354,15.77A23.463,23.463,0,0,1,0,44.458Z"/><path d="M66.271,1.5a25,25,0,1,1-25,25,25.028,25.028,0,0,1,25-25m0-1.5a26.5,26.5,0,1,0,26.5,26.5A26.5,26.5,0,0,0,66.271,0Z"/><path d="M49.919,21.4a2.123,2.123,0,0,0,.515.442,1,1,0,0,0,.5.146.582.582,0,0,0,.386-.126.4.4,0,0,0,.15-.319.415.415,0,0,0-.13-.329,1.634,1.634,0,0,0-.591-.239,1.925,1.925,0,0,1-.891-.442,1.036,1.036,0,0,1-.261-.747,1.315,1.315,0,0,1,.412-1,1.488,1.488,0,0,1,1.067-.389,2.3,2.3,0,0,1,.673.1,2.144,2.144,0,0,1,.6.288l-.366.841a1.506,1.506,0,0,0-.408-.256,1.066,1.066,0,0,0-.415-.087.554.554,0,0,0-.343.1.315.315,0,0,0-.132.26.319.319,0,0,0,.116.258,1.249,1.249,0,0,0,.446.185l.053.015a2.189,2.189,0,0,1,.94.425,1.041,1.041,0,0,1,.231.38,1.442,1.442,0,0,1,.079.49,1.426,1.426,0,0,1-.448,1.1,1.7,1.7,0,0,1-1.2.414,2.11,2.11,0,0,1-.815-.152,2.311,2.311,0,0,1-.708-.478Z"/><path d="M53.215,22.782V18.493h2.628v.94H54.354v.744h1.4v.92h-1.4v.724h1.488v.961Z"/><path d="M56.616,22.782V18.493h1.222a5.191,5.191,0,0,1,1,.065,1.291,1.291,0,0,1,.487.222,1.158,1.158,0,0,1,.356.448,1.428,1.428,0,0,1,.124.6,1.271,1.271,0,0,1-.244.81,1.189,1.189,0,0,1-.714.415l1.169,1.729H58.7L57.712,21.1v1.679Zm1.1-2.262h.217a.939.939,0,0,0,.553-.129.469.469,0,0,0,.174-.4.566.566,0,0,0-.162-.458.851.851,0,0,0-.547-.137h-.234Z"/><path d="M61.69,22.782l-1.8-4.289h1.242l.858,2.4c.008.025.024.086.049.184s.056.227.095.391q.047-.2.088-.354t.062-.22l.853-2.4H64.38l-1.8,4.289Z"/><path d="M64.758,22.782V18.493h1.181v4.289Z"/><path d="M69.99,18.66v1.277a1.734,1.734,0,0,0-.479-.391A1.08,1.08,0,0,0,69,19.422a1.051,1.051,0,0,0-.815.344,1.289,1.289,0,0,0-.312.9,1.2,1.2,0,0,0,.318.855,1.059,1.059,0,0,0,.81.34,1.08,1.08,0,0,0,.512-.125,1.715,1.715,0,0,0,.479-.394v1.28a2.8,2.8,0,0,1-.554.2,2.443,2.443,0,0,1-1.205-.017,1.827,1.827,0,0,1-.547-.253,2.157,2.157,0,0,1-.732-.812,2.371,2.371,0,0,1-.252-1.1,2.4,2.4,0,0,1,.16-.895,2.179,2.179,0,0,1,.481-.731,2.006,2.006,0,0,1,.688-.469,2.24,2.24,0,0,1,.851-.155,2.334,2.334,0,0,1,.557.067A2.8,2.8,0,0,1,69.99,18.66Z"/><path d="M70.649,22.782V18.493h2.628v.94H71.789v.744h1.4v.92h-1.4v.724h1.488v.961Z"/><path d="M49.7,25.018h1.166V27.1a6.459,6.459,0,0,0,.023.661,1.271,1.271,0,0,0,.079.335.484.484,0,0,0,.234.251,1,1,0,0,0,.813,0,.5.5,0,0,0,.235-.251,1.271,1.271,0,0,0,.079-.335,6.459,6.459,0,0,0,.023-.661V25.018H53.52v2.268a4.633,4.633,0,0,1-.085,1.042,1.4,1.4,0,0,1-.287.573,1.323,1.323,0,0,1-.6.391,3.385,3.385,0,0,1-1.864,0,1.346,1.346,0,0,1-.605-.391,1.433,1.433,0,0,1-.285-.573,4.55,4.55,0,0,1-.087-1.042V25.018Z"/><path d="M54.407,29.307V25.018h1.128l1.62,2.207a2.987,2.987,0,0,1,.154.271q.107.2.235.485c-.023-.178-.04-.336-.051-.475s-.017-.262-.017-.369V25.018H58.6v4.289H57.478l-1.62-2.215a2.472,2.472,0,0,1-.156-.271q-.107-.2-.233-.479c.023.18.041.34.052.479s.016.262.016.369v2.117Z"/><path d="M59.016,29.307,60.5,25.018H61.96l1.482,4.289H62.279l-.217-.768H60.4l-.223.768Zm1.638-1.6h1.163l-.437-1.416c-.014-.043-.032-.111-.056-.207l-.091-.369c-.025.105-.05.205-.074.3s-.05.188-.075.275Z"/><path d="M64.975,29.307l-1.8-4.289h1.242l.858,2.4c.008.025.024.086.049.183s.056.228.095.392c.031-.131.061-.25.088-.355s.048-.178.062-.219l.853-2.4h1.242l-1.8,4.289Z"/><path d="M67.4,29.307l1.479-4.289h1.465l1.482,4.289H70.667l-.217-.768H68.789l-.223.768Zm1.638-1.6H70.2l-.437-1.416c-.014-.043-.032-.111-.056-.207l-.091-.369c-.025.105-.05.205-.074.3s-.05.188-.075.275Z"/><path d="M72.27,29.307V25.018H73.45v4.289Z"/><path d="M74.394,29.307V25.018h1.169V28.3h1.453v1Z"/><path d="M77.4,28.311v-.955h1.992v.955Z"/><path d="M49.225,35.832,50.7,31.543h1.465l1.482,4.289H52.488l-.217-.768H50.61l-.223.768Zm1.638-1.6h1.163l-.437-1.416c-.014-.043-.032-.111-.056-.207l-.091-.369c-.025.105-.05.205-.074.3s-.05.188-.075.275Z"/><path d="M54.062,35.832V31.543h1.175a7.368,7.368,0,0,1,1.016.047,1.536,1.536,0,0,1,.5.162.913.913,0,0,1,.362.353,1.022,1.022,0,0,1,.124.511.86.86,0,0,1-.186.582,1.173,1.173,0,0,1-.594.326,1.027,1.027,0,0,1,.715.321,1.1,1.1,0,0,1,.258.763,1.221,1.221,0,0,1-.145.6,1,1,0,0,1-.415.4,1.7,1.7,0,0,1-.542.168,7.818,7.818,0,0,1-1.055.049Zm1.084-2.574h.234a1.282,1.282,0,0,0,.595-.1.352.352,0,0,0,.161-.33.375.375,0,0,0-.15-.341,1.192,1.192,0,0,0-.588-.1h-.252Zm0,1.7h.41a1.211,1.211,0,0,0,.589-.1.372.372,0,0,0,.173-.347.422.422,0,0,0-.158-.377,1.126,1.126,0,0,0-.586-.107h-.428Z"/><path d="M58.131,35.832V31.543H59.3V34.83h1.453v1Z"/><path d="M61.324,35.832V31.543h2.628v.941H62.464v.744h1.4v.92h-1.4v.723h1.488v.961Z"/><path d="M94.672,43.522l1.3-1.008a20.764,20.764,0,0,0,16.85,8.568c7.993,0,14.688-5.185,14.688-12.385v-.144c0-8.929-7.632-12.529-18.721-12.529h-1.729l-.5-1.008L126.139,2.7H97.408V1.255h30.818V2.407L108.785,24.585c12.457.072,20.306,4.393,20.306,13.9v.144c0,8.137-7.489,13.9-16.346,13.9A22.277,22.277,0,0,1,94.672,43.522Z"/></svg>