<svg xmlns="http://www.w3.org/2000/svg" fill="#fff" viewBox="0 0 136.363 53"><title>504</title><path d="M0,44.458l1.225-1.08a21.636,21.636,0,0,0,16.057,7.705c9.217,0,15.7-5.9,15.7-14.258v-.144c0-8.064-6.768-13.465-15.408-13.465A27.711,27.711,0,0,0,4.177,26.6l-.937-.5L4.753,1.255H31.611V2.694H6.193L4.9,24.585a28.972,28.972,0,0,1,12.817-2.809c9.577,0,16.85,5.977,16.85,14.833v.145c0,9.217-7.129,15.77-17.354,15.77A23.463,23.463,0,0,1,0,44.458Z"/><path d="M66.271,1.5a25,25,0,1,1-25,25,25.028,25.028,0,0,1,25-25m0-1.5a26.5,26.5,0,1,0,26.5,26.5A26.5,26.5,0,0,0,66.271,0Z"/><path d="M51.768,24.2v-.9h2.3c0,.029,0,.062,0,.1s0,.087,0,.155a2.382,2.382,0,0,1-.584,1.718,2.167,2.167,0,0,1-1.646.611,2.578,2.578,0,0,1-.927-.156,2.072,2.072,0,0,1-.726-.479,2.174,2.174,0,0,1-.473-.728,2.352,2.352,0,0,1-.169-.881,2.314,2.314,0,0,1,.164-.883,2.168,2.168,0,0,1,1.229-1.2,2.478,2.478,0,0,1,.9-.161,2.408,2.408,0,0,1,1.115.249,2.177,2.177,0,0,1,.815.741l-1.014.486a1.242,1.242,0,0,0-.408-.371,1.072,1.072,0,0,0-.509-.121,1.036,1.036,0,0,0-.826.35,1.679,1.679,0,0,0,0,1.921,1.032,1.032,0,0,0,.826.352,1.229,1.229,0,0,0,.743-.218.838.838,0,0,0,.347-.582Z"/><path d="M54.281,25.782l1.479-4.289h1.465l1.482,4.289H57.545l-.217-.768H55.667l-.223.768Zm1.638-1.6h1.163l-.437-1.415q-.021-.064-.056-.208l-.091-.369c-.025.105-.05.206-.074.3s-.05.188-.075.275Z"/><path d="M59.493,25.782V22.507h-.961V21.493h3.091v1.014h-.961v3.275Z"/><path d="M62.194,25.782V21.493h2.628v.94H63.334v.744h1.4v.92h-1.4v.724h1.488v.961Z"/><path d="M68.517,21.493l.539,2.039q.038.138.07.287t.067.343c.029-.152.055-.277.075-.377s.04-.183.06-.253l.5-2.039h1.181L69.8,25.782H68.716l-.53-1.831q-.029-.1-.1-.378-.029-.126-.047-.2L68,23.55q-.067.284-.1.4l-.521,1.831H66.29l-1.21-4.289h1.181l.492,2.051c.023.105.047.211.069.316s.043.214.063.325c.018-.082.037-.168.058-.258s.051-.218.092-.384l.539-2.051Z"/><path d="M70.808,25.782l1.479-4.289h1.465l1.482,4.289H74.071l-.217-.768H72.193l-.223.768Zm1.638-1.6h1.163l-.437-1.415q-.021-.064-.056-.208l-.091-.369c-.025.105-.05.206-.074.3s-.05.188-.075.275Z"/><path d="M76.192,25.782V23.825l-1.5-2.332h1.342l.577,1.1a.344.344,0,0,1,.018.032,1.343,1.343,0,0,1,.126.331,1.158,1.158,0,0,1,.126-.319L76.9,22.6l.571-1.1H78.82l-1.5,2.332v1.957Z"/><path d="M50.347,32.307V29.031h-.961V28.018h3.091v1.014h-.961v3.275Z"/><path d="M53.077,32.307V28.018h1.181v4.289Z"/><path d="M60.12,32.307H59.027l-.252-1.854c-.018-.131-.033-.277-.048-.437s-.028-.334-.04-.523a5.262,5.262,0,0,1-.161.68c-.018.057-.03.1-.038.125l-.583,2.01h-.779l-.583-2.01c-.008-.027-.02-.068-.035-.125a4.724,4.724,0,0,1-.161-.678c-.012.162-.025.323-.041.482s-.034.318-.056.477L56,32.307H54.911l.662-4.289H56.73l.647,2.213q.006.023.023.076a2.841,2.841,0,0,1,.114.506,2.063,2.063,0,0,1,.044-.253c.021-.093.051-.2.088-.335l.653-2.207h1.16Z"/><path d="M60.75,32.307V28.018h2.628v.941H61.89V29.7h1.4v.92h-1.4v.723h1.488v.961Z"/><path d="M68.555,30.172a2.176,2.176,0,0,1-.665,1.59,2.341,2.341,0,0,1-.75.488,2.328,2.328,0,0,1-1.756,0,2.247,2.247,0,0,1-.74-.488,2.173,2.173,0,0,1-.5-.727,2.2,2.2,0,0,1,.5-2.455,2.244,2.244,0,0,1,.74-.487,2.353,2.353,0,0,1,1.761,0,2.265,2.265,0,0,1,.745.487,2.195,2.195,0,0,1,.665,1.592Zm-2.291,1.26a1.031,1.031,0,0,0,.8-.357,1.43,1.43,0,0,0,0-1.8,1.075,1.075,0,0,0-1.6,0,1.448,1.448,0,0,0,0,1.806A1.031,1.031,0,0,0,66.264,31.432Z"/><path d="M69.261,28.018h1.166V30.1a6.459,6.459,0,0,0,.023.661,1.271,1.271,0,0,0,.079.335.484.484,0,0,0,.234.251,1,1,0,0,0,.813,0,.5.5,0,0,0,.235-.251,1.271,1.271,0,0,0,.079-.335,6.459,6.459,0,0,0,.023-.661V28.018h1.163v2.268a4.633,4.633,0,0,1-.085,1.042,1.4,1.4,0,0,1-.287.573,1.323,1.323,0,0,1-.6.391,3.385,3.385,0,0,1-1.864,0,1.346,1.346,0,0,1-.605-.391,1.433,1.433,0,0,1-.285-.573,4.55,4.55,0,0,1-.087-1.042V28.018Z"/><path d="M74.584,32.307V29.031h-.961V28.018h3.091v1.014h-.961v3.275Z"/><path d="M126.57,38.482H96.9l-.433-.937L126.787.9h1.295V37.042h8.281v1.44h-8.281V51.659H126.57Zm0-1.44V3.343L98.7,37.042Z"/></svg>